<svg xmlns="http://www.w3.org/2000/svg" width="24" height="24" viewBox="0 0 24 24" fill="none"><mask id="mask0_74_6730" style="mask-type:alpha" maskUnits="userSpaceOnUse" x="0" y="0" width="24" height="24"><rect width="24" height="24" fill="#D9D9D9"/></mask><g mask="url(#mask0_74_6730)"><path d="M5.61525 18.5V19.75C5.61525 19.9625 5.54342 20.1406 5.39975 20.2843C5.25592 20.4281 5.07775 20.5 4.86525 20.5H4.25C4.0375 20.5 3.85942 20.4281 3.71575 20.2843C3.57192 20.1406 3.5 19.9625 3.5 19.75V12.077L5.54225 6.25C5.61675 6.0205 5.75333 5.83817 5.952 5.703C6.15067 5.56767 6.37183 5.5 6.6155 5.5H17.423C17.657 5.5 17.8695 5.56875 18.0605 5.70625C18.2513 5.84375 18.3838 6.025 18.4578 6.25L20.5 12.077V19.75C20.5 19.9625 20.4281 20.1406 20.2843 20.2843C20.1406 20.4281 19.9625 20.5 19.75 20.5H19.1348C18.9223 20.5 18.7441 20.4281 18.6003 20.2843C18.4566 20.1406 18.3848 19.9625 18.3848 19.75V18.5H5.61525ZM5.60775 10.577H18.3923L17.1307 7H6.86925L5.60775 10.577ZM7.46375 15.8463C7.82758 15.8463 8.13617 15.7188 8.3895 15.464C8.64267 15.2093 8.76925 14.9001 8.76925 14.5363C8.76925 14.1724 8.64192 13.8638 8.38725 13.6105C8.13242 13.3573 7.82308 13.2308 7.45925 13.2308C7.09542 13.2308 6.78692 13.3581 6.53375 13.6128C6.28042 13.8676 6.15375 14.1769 6.15375 14.5408C6.15375 14.9046 6.28117 15.2131 6.536 15.4663C6.79067 15.7196 7.09992 15.8463 7.46375 15.8463ZM16.5408 15.8463C16.9046 15.8463 17.2131 15.7188 17.4663 15.464C17.7196 15.2093 17.8462 14.9001 17.8462 14.5363C17.8462 14.1724 17.7188 13.8638 17.464 13.6105C17.2093 13.3573 16.9001 13.2308 16.5363 13.2308C16.1724 13.2308 15.8638 13.3581 15.6105 13.6128C15.3573 13.8676 15.2308 14.1769 15.2308 14.5408C15.2308 14.9046 15.3581 15.2131 15.6128 15.4663C15.8676 15.7196 16.1769 15.8463 16.5408 15.8463ZM5 17H19V12.077H5V17Z" fill="#FCBE62"/></g></svg>