<svg xmlns="http://www.w3.org/2000/svg" width="24" height="24" viewBox="0 0 24 24" fill="none"><mask id="mask0_74_6758" style="mask-type:alpha" maskUnits="userSpaceOnUse" x="0" y="0" width="24" height="24"><rect width="24" height="24" fill="#D9D9D9"/></mask><g mask="url(#mask0_74_6758)"><path d="M12.0017 21.5999C10.6738 21.5999 9.42575 21.3479 8.25742 20.844C7.08908 20.3401 6.07283 19.6562 5.20866 18.7924C4.34449 17.9286 3.66028 16.9127 3.15603 15.7449C2.65194 14.5771 2.3999 13.3293 2.3999 12.0017C2.3999 10.6738 2.65186 9.42575 3.15578 8.25742C3.65969 7.08908 4.34357 6.07283 5.2074 5.20866C6.07123 4.34449 7.08706 3.66028 8.25489 3.15603C9.42272 2.65194 10.6705 2.3999 11.9981 2.3999C13.326 2.3999 14.5741 2.65186 15.7424 3.15578C16.9107 3.65969 17.927 4.34357 18.7911 5.2074C19.6553 6.07123 20.3395 7.08706 20.8438 8.25489C21.3479 9.42272 21.5999 10.6705 21.5999 11.9981C21.5999 13.326 21.3479 14.5741 20.844 15.7424C20.3401 16.9107 19.6562 17.927 18.7924 18.7911C17.9286 19.6553 16.9127 20.3395 15.7449 20.8438C14.5771 21.3479 13.3293 21.5999 12.0017 21.5999ZM11.242 20.0025V16.4851C10.2898 16.2894 9.4794 15.8573 8.81093 15.1889C8.14247 14.5204 7.71039 13.71 7.51468 12.7578H3.99729C4.16049 14.6908 4.92554 16.3297 6.29245 17.6745C7.65919 19.0192 9.30904 19.7952 11.242 20.0025ZM12.7578 20.0025C14.6908 19.8263 16.3406 19.0581 17.7074 17.6978C19.0743 16.3374 19.8393 14.6908 20.0025 12.7578H16.4851C16.2894 13.71 15.8573 14.5204 15.1889 15.1889C14.5204 15.8573 13.71 16.2894 12.7578 16.4851V20.0025ZM3.99729 11.242H7.45253L10.1926 8.46306H13.8072L16.5473 11.242H20.0025C19.8082 9.15224 18.9466 7.40875 17.4178 6.01152C15.8891 4.6143 14.0831 3.91569 11.9999 3.91569C9.9167 3.91569 8.11072 4.6143 6.58197 6.01152C5.05321 7.40875 4.19165 9.15224 3.99729 11.242Z" fill="#398BD7"/></g></svg>