<svg xmlns="http://www.w3.org/2000/svg" width="24" height="24" viewBox="0 0 24 24" fill="none"><mask id="mask0_74_6761" style="mask-type:alpha" maskUnits="userSpaceOnUse" x="0" y="0" width="24" height="24"><rect width="24" height="24" fill="#D9D9D9"/></mask><g mask="url(#mask0_74_6761)"><path d="M12.0002 16.3841C12.2151 16.3841 12.395 16.312 12.54 16.1678C12.6852 16.0238 12.7578 15.8451 12.7578 15.632C12.7578 15.4188 12.6851 15.2402 12.5398 15.0964C12.3944 14.9523 12.2144 14.8803 11.9997 14.8803C11.7847 14.8803 11.6048 14.9524 11.4598 15.0966C11.3146 15.2408 11.242 15.4195 11.242 15.6327C11.242 15.8457 11.3147 16.0243 11.46 16.1683C11.6054 16.3121 11.7854 16.3841 12.0002 16.3841ZM12.0002 12.4706C12.2151 12.4706 12.395 12.3985 12.54 12.2543C12.6852 12.1101 12.7578 11.9315 12.7578 11.7184C12.7578 11.5052 12.6851 11.3267 12.5398 11.1829C12.3944 11.0388 12.2144 10.9668 11.9997 10.9668C11.7847 10.9668 11.6048 11.0389 11.4598 11.1831C11.3146 11.3273 11.242 11.5059 11.242 11.7189C11.242 11.9321 11.3147 12.1107 11.46 12.2545C11.6054 12.3986 11.7854 12.4706 12.0002 12.4706ZM12.0002 8.55706C12.2151 8.55706 12.395 8.48497 12.54 8.34077C12.6852 8.19658 12.7578 8.01789 12.7578 7.80469C12.7578 7.59166 12.6851 7.41313 12.5398 7.2691C12.3944 7.12524 12.2144 7.05331 11.9997 7.05331C11.7847 7.05331 11.6048 7.12541 11.4598 7.2696C11.3146 7.41363 11.242 7.59224 11.242 7.80544C11.242 8.01864 11.3147 8.19717 11.46 8.34102C11.6054 8.48505 11.7854 8.55706 12.0002 8.55706ZM19.7731 19.2374H4.22668C3.72428 19.2374 3.29422 19.06 2.93649 18.7051C2.57877 18.3502 2.3999 17.9236 2.3999 17.4252V14.1287C2.97523 14.0194 3.4559 13.7395 3.84192 13.2889C4.22794 12.8384 4.42095 12.315 4.42095 11.7187C4.42095 11.1224 4.22794 10.599 3.84192 10.1485C3.4559 9.69791 2.97523 9.41796 2.3999 9.30869V6.01222C2.3999 5.51381 2.57877 5.08716 2.93649 4.73228C3.29422 4.37739 3.72428 4.19995 4.22668 4.19995H19.7731C20.2755 4.19995 20.7056 4.37739 21.0633 4.73228C21.421 5.08716 21.5999 5.51381 21.5999 6.01222V9.30869C21.0246 9.41796 20.5439 9.69791 20.1579 10.1485C19.7719 10.599 19.5788 11.1224 19.5788 11.7187C19.5788 12.315 19.7719 12.8384 20.1579 13.2889C20.5439 13.7395 21.0246 14.0194 21.5999 14.1287V17.4252C21.5999 17.9236 21.421 18.3502 21.0633 18.7051C20.7056 19.06 20.2755 19.2374 19.7731 19.2374ZM19.7731 17.7337C19.8639 17.7337 19.9384 17.7048 19.9967 17.647C20.055 17.5892 20.0841 17.5152 20.0841 17.4252V15.1773C19.461 14.8097 18.9683 14.321 18.6062 13.7112C18.2441 13.1013 18.0631 12.4372 18.0631 11.7187C18.0631 11.0002 18.2441 10.3361 18.6062 9.72623C18.9683 9.11637 19.461 8.62766 20.0841 8.26007V6.01222C20.0841 5.92216 20.055 5.84823 19.9967 5.79042C19.9384 5.73261 19.8639 5.7037 19.7731 5.7037H4.22668C4.1359 5.7037 4.06138 5.73261 4.0031 5.79042C3.94483 5.84823 3.91569 5.92216 3.91569 6.01222V8.26007C4.53885 8.62766 5.03148 9.11637 5.39359 9.72623C5.75569 10.3361 5.93674 11.0002 5.93674 11.7187C5.93674 12.4372 5.75569 13.1013 5.39359 13.7112C5.03148 14.321 4.53885 14.8097 3.91569 15.1773V17.4252C3.91569 17.5152 3.94483 17.5892 4.0031 17.647C4.06138 17.7048 4.1359 17.7337 4.22668 17.7337H19.7731Z" fill="#00BCA4"/></g></svg>