<svg xmlns="http://www.w3.org/2000/svg" width="24" height="24" viewBox="0 0 24 24" fill="none"><mask id="mask0_74_6764" style="mask-type:alpha" maskUnits="userSpaceOnUse" x="0" y="0" width="24" height="24"><rect width="24" height="24" fill="#D9D9D9"/></mask><g mask="url(#mask0_74_6764)"><path d="M11.9999 21.6001C17.3018 21.6001 21.5999 17.3021 21.5999 12.0001C21.5999 6.69821 17.3018 2.40015 11.9999 2.40015C6.69797 2.40015 2.3999 6.69821 2.3999 12.0001C2.3999 17.3021 6.69797 21.6001 11.9999 21.6001Z" stroke="#E15F67" stroke-width="1.4925"/><path d="M11.9993 17.7597C15.1804 17.7597 17.7593 15.1809 17.7593 11.9997C17.7593 8.81859 15.1804 6.23975 11.9993 6.23975C8.8181 6.23975 6.23926 8.81859 6.23926 11.9997C6.23926 15.1809 8.8181 17.7597 11.9993 17.7597Z" stroke="#E15F67" stroke-width="1.4925"/><path d="M11.9991 13.9206C13.0595 13.9206 13.9191 13.061 13.9191 12.0006C13.9191 10.9402 13.0595 10.0806 11.9991 10.0806C10.9387 10.0806 10.0791 10.9402 10.0791 12.0006C10.0791 13.061 10.9387 13.9206 11.9991 13.9206Z" stroke="#E15F67" stroke-width="1.4925"/><path d="M6.23926 12.0001H10.0793M13.9193 12.0001H17.7593M9.11926 16.9883L11.0393 13.6628M12.9593 10.3374L14.8793 7.01196M14.8793 16.9883L12.9593 13.6628M11.0393 10.3374L9.11926 7.01196" stroke="#E15F67" stroke-width="1.4925" stroke-linecap="round"/></g></svg>